<svg width="112" height="112" viewBox="0 0 112 112" fill="none" xmlns="http://www.w3.org/2000/svg">
<g clip-path="url(#clip0_45_25)" filter="url(#filter0_i_45_25)">
<path d="M29.1794 63.6548C36.7149 54.5566 46.2397 49.5459 55.9999 49.5459C65.7601 49.5459 75.2852 54.5566 82.8202 63.6548C89.5934 71.8328 93.637 82.1394 93.637 91.225C93.637 95.6385 92.2877 99.0002 89.6268 101.217C87.0005 103.406 83.5331 104.146 79.6647 104.146C75.5485 104.146 70.978 103.307 66.4872 102.484C62.5631 101.764 58.8566 101.084 55.9997 101.084C53.534 101.084 50.0574 101.729 46.3773 102.412C37.7767 104.009 28.0284 105.819 22.3971 101.137C19.72 98.9108 18.3627 95.5759 18.3627 91.225C18.3625 82.1394 22.4061 71.8328 29.1794 63.6548Z" fill="white"/>
<path d="M28.4091 14.2507C31.1663 10.1857 35.1143 7.85449 39.241 7.85449C43.3679 7.85449 47.3157 10.1859 50.0728 14.2507C52.6055 17.985 54.0005 22.889 54.0005 28.0593C54.0005 33.2297 52.6057 38.1336 50.0728 41.8679C47.3157 45.9327 43.3677 48.2642 39.241 48.2642C35.114 48.2642 31.1663 45.9327 28.4091 41.8679C25.8765 38.1336 24.4815 33.2297 24.4815 28.0593C24.4815 22.889 25.8762 17.9848 28.4091 14.2507Z" fill="white"/>
<path d="M61.927 14.2505C64.6841 10.1855 68.6319 7.85425 72.7588 7.85425C76.8857 7.85425 80.8337 10.1857 83.5907 14.2505C86.1233 17.9848 87.5183 22.8887 87.5183 28.0591C87.5183 33.2295 86.1236 38.1334 83.5907 41.8677C80.8335 45.9327 76.8857 48.2642 72.7588 48.2642C68.6319 48.2642 64.6841 45.9327 61.927 41.8677C59.3943 38.1334 57.9993 33.2297 57.9993 28.0591C57.9995 22.8887 59.3943 17.9846 61.927 14.2505Z" fill="white"/>
<path d="M0.652179 45.9665C1.76365 42.1856 4.14606 39.4383 7.36015 38.2311C9.94665 37.2596 12.8663 37.4243 15.5814 38.695C19.3232 40.4459 22.3815 44.0614 23.9718 48.6143C25.2714 52.3348 25.4335 56.2672 24.4279 59.6878C23.3164 63.4687 20.934 66.216 17.7197 67.4233C16.6074 67.8411 15.4338 68.0487 14.2411 68.0487C12.6602 68.0487 11.0459 67.6836 9.49822 66.9593C5.7565 65.2084 2.69815 61.5929 1.10784 57.0403L1.10784 57.0401C-0.191537 53.3198 -0.353633 49.3871 0.652179 45.9665Z" fill="white"/>
<path d="M88.0278 48.6139C89.6183 44.0611 92.6766 40.4458 96.4181 38.6949C99.1335 37.4242 102.053 37.2597 104.64 38.231C107.854 39.4385 110.236 42.1858 111.348 45.9664C112.353 49.387 112.191 53.3197 110.892 57.04L110.892 57.0402C109.301 61.593 106.243 65.2083 102.501 66.9592C100.953 67.6835 99.3393 68.0486 97.7584 68.0486C96.5658 68.0486 95.392 67.8408 94.2799 67.4232C91.0651 66.2157 88.6829 63.4684 87.5714 59.6877C86.5663 56.2673 86.7284 52.3347 88.0278 48.6139Z" fill="white"/>
</g>
<defs>
<filter id="filter0_i_45_25" x="0" y="0" width="112" height="115" filterUnits="userSpaceOnUse" color-interpolation-filters="sRGB">
<feFlood flood-opacity="0" result="BackgroundImageFix"/>
<feBlend mode="normal" in="SourceGraphic" in2="BackgroundImageFix" result="shape"/>
<feColorMatrix in="SourceAlpha" type="matrix" values="0 0 0 0 0 0 0 0 0 0 0 0 0 0 0 0 0 0 127 0" result="hardAlpha"/>
<feOffset dy="4"/>
<feGaussianBlur stdDeviation="1.5"/>
<feComposite in2="hardAlpha" operator="arithmetic" k2="-1" k3="1"/>
<feColorMatrix type="matrix" values="0 0 0 0 0 0 0 0 0 0 0 0 0 0 0 0 0 0 0.25 0"/>
<feBlend mode="normal" in2="shape" result="effect1_innerShadow_45_25"/>
</filter>
<clipPath id="clip0_45_25">
<rect width="112" height="112" fill="white" transform="matrix(-1 -8.74228e-08 -8.74228e-08 1 112 0)"/>
</clipPath>
</defs>
</svg>
